<svg id="Layer_1" data-name="Layer 1" xmlns="http://www.w3.org/2000/svg" viewBox="0 0 100 100"><defs><style>.cls-1{fill:#007bff;}.cls-2{fill:#fff;}</style></defs><title>logo</title><path class="cls-1" d="M100,83.33A16.72,16.72,0,0,1,83.33,100H16.67A16.72,16.72,0,0,1,0,83.33V16.67A16.72,16.72,0,0,1,16.67,0H83.33A16.72,16.72,0,0,1,100,16.67Z"/><path class="cls-2" d="M52.92,24.87q6.67.24,13.65.66t14.18.88a11.1,11.1,0,0,1-.8,2.5A10.65,10.65,0,0,1,78,31.75a16.84,16.84,0,0,1-3.29,2.72,16.41,16.41,0,0,1-4.94,2.08l-6.49.27c-2.07.07-4.06.16-6,.27q-.18,5.83-.67,11.71t-1,10.71q-.63,5.61-1.34,10.75l-2,3.77L51.68,74l-1.43,2.76a.53.53,0,0,0-.26-.23c-.24-.1-.51,0-.8.31a3.36,3.36,0,0,0-.54.92,2.59,2.59,0,0,0-.26.69h-.71l-1.16,1.54L45.72,78a9.91,9.91,0,0,1-.44,1.3q-.18.54-.36,1c-.12.28-.24.43-.36.43-.06-.41-.12-1.39-.17-2.92s-.11-3.44-.14-5.72-.07-4.85-.13-7.72-.12-5.82-.18-8.87-.13-6.09-.22-9.14-.19-5.93-.31-8.64q-6,.31-9.47.46c-2.28.1-3.81.18-4.58.23a4.94,4.94,0,0,1-3.15-.84,6.43,6.43,0,0,1-2-2.35,9,9,0,0,1-.88-3.07A9.71,9.71,0,0,1,23.45,29a6.4,6.4,0,0,1,1.07-2.49,2.77,2.77,0,0,1,2-1.19q3.38-.39,7.38-.54c2.66-.1,5.51-.16,8.53-.16a3.21,3.21,0,0,1,1-.61,13.77,13.77,0,0,1,2-.38,15,15,0,0,1,2.45-.12,12.7,12.7,0,0,1,2.58.35A9.77,9.77,0,0,1,52.92,24.87Z"/></svg>