<svg id="Layer_1" data-name="Layer 1" xmlns="http://www.w3.org/2000/svg" viewBox="0 0 100 100"><defs><style>.cls-1{fill:#007bff;}.cls-2{fill:#fff;}</style></defs><title>logo</title><path class="cls-1" d="M100,83.33A16.72,16.72,0,0,1,83.33,100H16.67A16.72,16.72,0,0,1,0,83.33V16.67A16.72,16.72,0,0,1,16.67,0H83.33A16.72,16.72,0,0,1,100,16.67Z"/><path class="cls-2" d="M53.07,20.5q7.74.27,15.84.76l16.46,1a12.5,12.5,0,0,1-3.15,6.2,19.14,19.14,0,0,1-9.55,5.57q-3.92.18-7.53.31t-6.91.31q-.21,6.78-.78,13.59T56.27,60.7q-.72,6.51-1.55,12.48l-2.27,4.36-.83-.09L50,80.66a.57.57,0,0,0-.31-.26c-.27-.12-.58,0-.92.35a3.83,3.83,0,0,0-.62,1.07,3,3,0,0,0-.31.8H47l-1.34,1.79-.93-2.23a11.15,11.15,0,0,1-.51,1.51c-.14.42-.28.79-.42,1.12s-.27.49-.41.49q-.1-.72-.21-3.39c-.06-1.78-.12-4-.15-6.64s-.09-5.63-.15-9-.14-6.76-.21-10.29-.16-7.07-.26-10.61-.22-6.87-.36-10l-11,.53q-4,.18-5.31.27a5.74,5.74,0,0,1-3.67-1,7.44,7.44,0,0,1-2.32-2.72,10.45,10.45,0,0,1-1-3.57,11.06,11.06,0,0,1,.16-3.61,7.58,7.58,0,0,1,1.23-2.89A3.28,3.28,0,0,1,22.42,21c2.62-.3,5.47-.51,8.57-.63s6.4-.18,9.9-.18A3.79,3.79,0,0,1,42,19.52a15.79,15.79,0,0,1,2.27-.44,17.38,17.38,0,0,1,2.84-.14,15.44,15.44,0,0,1,3,.4A11.76,11.76,0,0,1,53.07,20.5Z"/></svg>